<svg xmlns="http://www.w3.org/2000/svg" viewBox="0 0 1000 1000">
  <path d="M 390 1012 Q 270 1012 191.5 974.5 Q 113 937 74.5 872 Q 36 807 36 727 Q 36 655 61 604 Q 86 553 128.5 526.5 Q 171 500 225 500 Q 285 500 321 534 Q 357 568 357 627 Q 357 688 319 726.5 Q 281 765 202 765 Q 177 765 155.5 758.5 Q 134 752 115 743 Q 119 792 148 835.5 Q 177 879 236 906 Q 295 933 390 933 Q 538 933 610 880.5 Q 682 828 682 715 Q 682 678 671 646.5 Q 660 615 637.5 595 Q 615 575 580 575 Q 557 575 537.5 590.5 Q 518 606 518 640 Q 518 679 544 704.5 Q 570 730 612 744 V 816 H 303 V 742 H 500 Q 439 704 439 626 Q 439 596 454 567 Q 469 538 501.5 519 Q 534 500 584 500 Q 636 500 676.5 528 Q 717 556 741 604.5 Q 765 653 765 716 Q 765 867 665.5 939.5 Q 566 1012 390 1012 Z M 220 571 Q 182 571 155 597 Q 128 623 119 671 Q 133 681 152.5 688 Q 172 695 197 695 Q 237 695 257.5 678 Q 278 661 278 631 Q 278 602 262 586.5 Q 246 571 220 571 Z" fill="black"/>
</svg>