<svg xmlns="http://www.w3.org/2000/svg" viewBox="0 0 1000 1000">
  <path d="M 423 1012 Q 285 1012 200 974.5 Q 115 937 75.5 872 Q 36 807 36 727 Q 36 655 61 604 Q 86 553 128.5 526.5 Q 171 500 225 500 Q 285 500 321 534 Q 357 568 357 627 Q 357 688 319 726.5 Q 281 765 202 765 Q 177 765 155.5 758.5 Q 134 752 115 743 Q 118 792 147.5 835.5 Q 177 879 243 906 Q 309 933 423 933 Q 542 933 604.5 905 Q 667 877 667 829 Q 667 811 655 796 Q 630 807 604.5 811.5 Q 579 816 550 816 H 303 V 742 H 553 Q 512 726 486 695.5 Q 460 665 460 622 Q 460 564 503 532 Q 546 500 607 500 Q 663 500 698 520 Q 733 540 749.5 572 Q 766 604 766 640 Q 766 675 752.5 704 Q 739 733 717 755 Q 732 769 741 788 Q 750 807 750 831 Q 750 861 737 893 Q 724 925 689.5 952 Q 655 979 590.5 995.5 Q 526 1012 423 1012 Z M 220 571 Q 182 571 155 597 Q 128 623 119 671 Q 133 681 152.5 688 Q 172 695 197 695 Q 237 695 257.5 678 Q 278 661 278 631 Q 278 602 262 586.5 Q 246 571 220 571 Z M 645 715 Q 647 716 649 716 Q 664 703 673.5 685 Q 683 667 683 643 Q 683 614 665.5 593 Q 648 572 610 572 Q 577 572 558.5 587 Q 540 602 540 627 Q 540 661 571 681 Q 602 701 645 715 Z" fill="black"/>
</svg>